<svg width="1122" height="264" viewBox="0 0 1122 264" fill="none" xmlns="http://www.w3.org/2000/svg" class="block h-9 w-auto">
    <path d="M729.91 70.96L713.02 104.53L729.91 138.09L746.81 104.53L729.91 70.96Z" fill="#FFCF06"/>
    <path d="M292.73 237.57C283.41 240.92 275.46 242.6 268.88 242.6C256.83 242.6 247.23 239.84 240.09 234.31C232.95 228.78 227.92 221.98 225 213.91C222.08 205.84 220.34 197.95 219.78 190.25C219.22 182.55 218.88 177.52 218.76 175.16H333.35C333.35 162 330.56 149.57 324.97 137.89C319.38 126.22 310.72 116.71 298.98 109.38C287.24 102.05 272.86 98.39 255.85 98.39C238.46 98.39 222.99 102.18 209.45 109.76C195.91 117.34 185.51 127.53 178.24 140.32C170.97 153.12 167.34 167.03 167.34 182.06C167.34 193.49 169.51 204.17 173.86 214.11C178.21 224.05 184.48 232.68 192.68 240.01C200.88 247.34 210.85 253.05 222.59 257.15C234.33 261.25 247.34 263.3 261.63 263.3C293.55 263.3 316.84 251.56 331.5 228.08L316.97 218.2C310.12 227.75 302.05 234.21 292.73 237.57ZM228.73 127.26C234.51 119.43 242.8 115.52 253.6 115.52C275.96 115.52 287.14 129.68 287.14 158H219.13C219.75 145.33 222.95 135.09 228.73 127.26ZM529.72 130.8C529.72 124.59 534.38 121.48 543.69 121.48C544.81 121.48 545.74 121.51 546.48 121.57C547.23 121.63 548.03 121.66 548.9 121.66V104.52H411.77V55.34H396.5C395.13 64.04 391.94 72.17 386.9 79.75C381.87 87.33 375 93.35 366.31 97.82C357.61 102.29 347.37 104.53 335.57 104.53V121.67H363.71V209.43C363.71 218.62 364.52 226.92 366.13 234.3C367.74 241.69 372.03 248.37 378.99 254.33C385.95 260.29 396.75 263.27 411.41 263.27C423.46 263.27 433.96 260.22 442.9 254.14C451.84 248.06 459.67 237.99 466.38 223.95L450.36 216.68C446.76 223.64 443.03 229.44 439.18 234.1C435.33 238.76 430.42 241.09 424.46 241.09C418.87 241.09 415.36 238.7 413.93 233.92C412.5 229.14 411.79 221.34 411.79 210.54V121.66H453.15C461.6 121.79 467.43 123.37 470.66 126.41C473.89 129.46 478.17 136.75 483.52 148.3L537.37 263.26H553.39L571.75 226.05L533.26 143.08C530.9 138.13 529.72 134.03 529.72 130.8ZM613 104.53L593.37 144.01L653.81 263.28H669.83L687.54 226.11L626.23 104.53H613ZM875.1 237.57C865.78 240.92 857.83 242.6 851.25 242.6C839.2 242.6 829.6 239.84 822.46 234.31C815.32 228.78 810.28 221.98 807.37 213.91C804.45 205.84 802.71 197.95 802.15 190.25C801.59 182.55 801.25 177.52 801.13 175.16H915.72C915.72 162 912.93 149.57 907.34 137.89C901.75 126.22 893.09 116.71 881.35 109.38C869.61 102.05 855.23 98.39 838.22 98.39C820.83 98.39 805.36 102.18 791.83 109.76C778.29 117.34 767.89 127.53 760.62 140.32C753.35 153.12 749.72 167.03 749.72 182.06C749.72 193.49 751.89 204.17 756.24 214.11C760.59 224.05 766.86 232.68 775.06 240.01C783.26 247.34 793.23 253.05 804.97 257.15C816.71 261.25 829.72 263.3 844.01 263.3C875.93 263.3 899.22 251.56 913.88 228.08L899.35 218.2C892.49 227.75 884.42 234.21 875.1 237.57ZM811.1 127.26C816.88 119.43 825.17 115.52 835.97 115.52C858.33 115.52 869.51 129.68 869.51 158H801.5C802.12 145.33 805.32 135.09 811.1 127.26ZM1116.1 149.99C1112.81 140.43 1107.87 131.73 1101.29 123.9C1094.7 116.07 1086.48 109.86 1076.6 105.27C1066.73 100.68 1055.45 98.38 1042.78 98.38C1029.24 98.38 1018.28 100.59 1009.89 104.99C1001.5 109.4 994.15 114.59 987.81 120.55V0L939.74 10.22V263.28H954.27C959.36 256.32 967.62 247.13 979.05 235.7C985.26 243.78 993.15 250.39 1002.71 255.54C1012.27 260.69 1023.7 263.27 1036.99 263.27C1048.29 263.27 1059.01 261.28 1069.13 257.31C1079.25 253.34 1088.26 247.56 1096.15 239.98C1104.04 232.4 1110.15 223.43 1114.5 213.06C1118.85 202.69 1121.02 191.54 1121.02 179.61C1121.03 169.43 1119.38 159.56 1116.1 149.99ZM1066.35 207.57C1064.3 217.14 1060.29 225.36 1054.33 232.26C1048.37 239.15 1040.17 242.6 1029.73 242.6C1024.02 242.6 1017.46 241.27 1010.07 238.59C1002.68 235.92 995.26 229.74 987.8 220.05V144.22C991.65 139.25 995.84 134.9 1000.38 131.18C1004.91 127.45 1009.82 124.5 1015.1 122.33C1020.38 120.16 1025.75 119.07 1031.22 119.07C1046.37 119.07 1056.53 125.03 1061.68 136.96C1066.83 148.89 1069.41 162.61 1069.41 178.14C1069.42 188.19 1068.4 198 1066.35 207.57ZM187.08 257.13C185.14 255.65 183.27 254.11 181.48 252.51C175.65 247.3 170.59 241.49 166.33 235.15C161.3 238.11 156.05 240.14 150.61 241.24C139.86 243.41 127.35 244.5 113.07 244.5C101.77 244.5 93.63 243.23 88.66 240.68C83.69 238.13 80.65 234.38 79.53 229.41C78.41 224.44 77.85 216.25 77.85 204.82V18.34H0V30.26C4.87 30.81 8.87 31.72 11.98 33.01C17.38 35.25 20.83 38.38 22.32 42.42C23.81 46.46 24.56 52.14 24.56 59.47V257.13H187.08Z" fill="#0E2EA5"/>
</svg>